<svg width="140" height="59" viewBox="0 0 140 59" fill="none" xmlns="http://www.w3.org/2000/svg">
<path d="M25.6406 40.3203V44H7.57031V40.3203H25.6406ZM8.48438 9.875V44H3.96094V9.875H8.48438ZM23.25 24.5469V28.2266H7.57031V24.5469H23.25ZM25.4062 9.875V13.5781H7.57031V9.875H25.4062ZM62.7722 9.875V44H58.2253L41.0456 17.6797V44H36.5222V9.875H41.0456L58.2956 36.2656V9.875H62.7722ZM80.5912 9.875V44H76.0678V9.875H80.5912ZM101.193 9.875L87.0131 25.7891L79.0444 34.0625L78.2944 29.2344L84.2944 22.625L95.7553 9.875H101.193ZM96.8334 44L84.2006 27.3594L86.8959 23.7734L102.224 44H96.8334ZM137.012 25.8594V28.0156C137.012 30.5781 136.692 32.875 136.051 34.9062C135.41 36.9375 134.488 38.6641 133.285 40.0859C132.082 41.5078 130.637 42.5938 128.949 43.3438C127.278 44.0938 125.403 44.4688 123.324 44.4688C121.309 44.4688 119.457 44.0938 117.77 43.3438C116.098 42.5938 114.645 41.5078 113.41 40.0859C112.192 38.6641 111.246 36.9375 110.574 34.9062C109.903 32.875 109.567 30.5781 109.567 28.0156V25.8594C109.567 23.2969 109.895 21.0078 110.551 18.9922C111.223 16.9609 112.168 15.2344 113.387 13.8125C114.606 12.375 116.051 11.2812 117.723 10.5312C119.41 9.78125 121.262 9.40625 123.278 9.40625C125.356 9.40625 127.231 9.78125 128.903 10.5312C130.59 11.2812 132.035 12.375 133.238 13.8125C134.457 15.2344 135.387 16.9609 136.028 18.9922C136.684 21.0078 137.012 23.2969 137.012 25.8594ZM132.535 28.0156V25.8125C132.535 23.7812 132.324 21.9844 131.903 20.4219C131.496 18.8594 130.895 17.5469 130.098 16.4844C129.301 15.4219 128.324 14.6172 127.168 14.0703C126.028 13.5234 124.731 13.25 123.278 13.25C121.871 13.25 120.598 13.5234 119.457 14.0703C118.332 14.6172 117.363 15.4219 116.551 16.4844C115.754 17.5469 115.137 18.8594 114.699 20.4219C114.262 21.9844 114.043 23.7812 114.043 25.8125V28.0156C114.043 30.0625 114.262 31.875 114.699 33.4531C115.137 35.0156 115.762 36.3359 116.574 37.4141C117.403 38.4766 118.379 39.2812 119.504 39.8281C120.645 40.375 121.918 40.6484 123.324 40.6484C124.793 40.6484 126.098 40.375 127.238 39.8281C128.379 39.2812 129.34 38.4766 130.121 37.4141C130.918 36.3359 131.52 35.0156 131.926 33.4531C132.332 31.875 132.535 30.0625 132.535 28.0156Z" fill="#494949"/>
<path d="M57.8481 51.9556V55.001C57.7336 55.1478 57.5527 55.3071 57.3057 55.479C57.0622 55.6509 56.7435 55.7995 56.3496 55.9248C55.9557 56.0465 55.4723 56.1074 54.8994 56.1074C54.4017 56.1074 53.9469 56.0251 53.5352 55.8604C53.1234 55.6921 52.7689 55.4468 52.4717 55.1245C52.1745 54.8022 51.9453 54.4084 51.7842 53.9429C51.623 53.4774 51.5425 52.9456 51.5425 52.3477V51.832C51.5425 51.234 51.6177 50.7023 51.7681 50.2368C51.922 49.7713 52.1405 49.3774 52.4233 49.0552C52.7098 48.7329 53.0518 48.4876 53.4492 48.3193C53.8503 48.151 54.2979 48.0669 54.792 48.0669C55.4544 48.0669 55.9987 48.1761 56.4248 48.3945C56.8545 48.613 57.1839 48.9137 57.4131 49.2969C57.6423 49.6764 57.7855 50.1133 57.8428 50.6074H56.4033C56.3639 50.3353 56.2852 50.0972 56.167 49.8931C56.0488 49.6854 55.8805 49.5243 55.6621 49.4097C55.4473 49.2915 55.168 49.2324 54.8242 49.2324C54.5342 49.2324 54.2782 49.2897 54.0562 49.4043C53.8341 49.5189 53.6479 49.6854 53.4976 49.9038C53.3472 50.1222 53.2326 50.3926 53.1538 50.7148C53.0786 51.0371 53.041 51.4059 53.041 51.8213V52.3477C53.041 52.7666 53.084 53.139 53.1699 53.4648C53.2559 53.7871 53.3794 54.0592 53.5405 54.2812C53.7052 54.4997 53.9076 54.6662 54.1475 54.7808C54.391 54.8918 54.6667 54.9473 54.9746 54.9473C55.2539 54.9473 55.4849 54.924 55.6675 54.8774C55.8537 54.8273 56.0023 54.7682 56.1133 54.7002C56.2243 54.6322 56.3102 54.5659 56.3711 54.5015V53.0352H54.8188V51.9556H57.8481ZM59.2446 48.1797H62.0859C62.6803 48.1797 63.1906 48.2692 63.6167 48.4482C64.0428 48.6273 64.3704 48.8923 64.5996 49.2432C64.8288 49.5941 64.9434 50.0256 64.9434 50.5376C64.9434 50.9422 64.8717 51.2931 64.7285 51.5903C64.5853 51.8875 64.383 52.1364 64.1216 52.3369C63.8638 52.5374 63.5594 52.695 63.2085 52.8096L62.7466 53.0459H60.2383L60.2275 51.8804H62.1021C62.4064 51.8804 62.6589 51.8267 62.8594 51.7192C63.0599 51.6118 63.2103 51.4632 63.3105 51.2734C63.4144 51.0837 63.4663 50.867 63.4663 50.6235C63.4663 50.3621 63.4162 50.1366 63.3159 49.9468C63.2157 49.7534 63.0635 49.6048 62.8594 49.501C62.6553 49.3971 62.3975 49.3452 62.0859 49.3452H60.7217V56H59.2446V48.1797ZM63.6597 56L61.8496 52.498L63.4126 52.4927L65.2441 55.9248V56H63.6597ZM72.5703 51.8911V52.2939C72.5703 52.8848 72.4915 53.4165 72.334 53.8892C72.1764 54.3582 71.9526 54.7575 71.6626 55.0869C71.3726 55.4163 71.027 55.6688 70.626 55.8442C70.2249 56.0197 69.7791 56.1074 69.2886 56.1074C68.8052 56.1074 68.3612 56.0197 67.9565 55.8442C67.5555 55.6688 67.2082 55.4163 66.9146 55.0869C66.6209 54.7575 66.3936 54.3582 66.2324 53.8892C66.0713 53.4165 65.9907 52.8848 65.9907 52.2939V51.8911C65.9907 51.2967 66.0713 50.765 66.2324 50.2959C66.3936 49.8268 66.6191 49.4276 66.9092 49.0981C67.1992 48.7651 67.5448 48.5109 67.9458 48.3354C68.3504 48.16 68.7944 48.0723 69.2778 48.0723C69.7684 48.0723 70.2142 48.16 70.6152 48.3354C71.0163 48.5109 71.3618 48.7651 71.6519 49.0981C71.9455 49.4276 72.1711 49.8268 72.3286 50.2959C72.4897 50.765 72.5703 51.2967 72.5703 51.8911ZM71.0771 52.2939V51.8804C71.0771 51.4543 71.0378 51.0801 70.959 50.7578C70.8802 50.432 70.7638 50.158 70.6099 49.936C70.4559 49.714 70.2661 49.5475 70.0405 49.4365C69.8149 49.3219 69.5607 49.2646 69.2778 49.2646C68.9914 49.2646 68.7371 49.3219 68.5151 49.4365C68.2967 49.5475 68.1105 49.714 67.9565 49.936C67.8026 50.158 67.6844 50.432 67.6021 50.7578C67.5233 51.0801 67.4839 51.4543 67.4839 51.8804V52.2939C67.4839 52.7165 67.5233 53.0907 67.6021 53.4165C67.6844 53.7424 67.8026 54.0181 67.9565 54.2437C68.1141 54.4657 68.3039 54.634 68.5259 54.7485C68.7479 54.8631 69.0021 54.9204 69.2886 54.9204C69.575 54.9204 69.8293 54.8631 70.0513 54.7485C70.2733 54.634 70.4595 54.4657 70.6099 54.2437C70.7638 54.0181 70.8802 53.7424 70.959 53.4165C71.0378 53.0907 71.0771 52.7165 71.0771 52.2939ZM78.1724 48.1797H79.6494V53.3735C79.6494 53.9715 79.5205 54.4746 79.2627 54.8828C79.0049 55.2874 78.654 55.5936 78.21 55.8013C77.766 56.0054 77.2611 56.1074 76.6953 56.1074C76.1224 56.1074 75.6121 56.0054 75.1646 55.8013C74.717 55.5936 74.366 55.2874 74.1118 54.8828C73.8576 54.4746 73.7305 53.9715 73.7305 53.3735V48.1797H75.2075V53.3735C75.2075 53.7388 75.2684 54.0378 75.3901 54.2705C75.5119 54.4997 75.6838 54.6698 75.9058 54.7808C76.1278 54.8918 76.391 54.9473 76.6953 54.9473C77.0033 54.9473 77.2664 54.8918 77.4849 54.7808C77.7069 54.6698 77.877 54.4997 77.9951 54.2705C78.1133 54.0378 78.1724 53.7388 78.1724 53.3735V48.1797ZM84.0591 53.1479H82.0449V51.9878H84.0591C84.3885 51.9878 84.6553 51.9341 84.8594 51.8267C85.0671 51.7157 85.2192 51.5653 85.3159 51.3755C85.4126 51.1821 85.4609 50.9619 85.4609 50.7148C85.4609 50.4749 85.4126 50.2511 85.3159 50.0435C85.2192 49.8358 85.0671 49.6675 84.8594 49.5386C84.6553 49.4097 84.3885 49.3452 84.0591 49.3452H82.5283V56H81.0513V48.1797H84.0591C84.6678 48.1797 85.187 48.2889 85.6167 48.5073C86.05 48.7222 86.3794 49.0212 86.605 49.4043C86.8341 49.7839 86.9487 50.2171 86.9487 50.7041C86.9487 51.209 86.8341 51.644 86.605 52.0093C86.3794 52.3745 86.05 52.6556 85.6167 52.8525C85.187 53.0495 84.6678 53.1479 84.0591 53.1479Z" fill="#1F2248"/>
</svg>
